<svg xmlns="http://www.w3.org/2000/svg" width="1200" height="1160" viewBox="0 0 1200 1160">
<rect width="100%" height="100%" fill="#ffffff"/>
<style>text{font-family:Arial,sans-serif;fill:#252525}.title{font-size:31px;font-weight:700}.subtitle{font-size:18px;fill:#555}.panel{font-size:21px;font-weight:700}.tick{font-size:14px;fill:#666}.note{font-size:14px;fill:#555}.grid{stroke:#ddd9d0;stroke-width:1}</style>
<text x="70" y="58" class="title">Files took over, but vinyl remained in all three styles</text>
<text x="70" y="91" class="subtitle">Share among filtered Discogs releases with Vinyl, CD, or File, 1985–2024</text>
<line x1="760" y1="126" x2="788" y2="126" stroke="#7656A8" stroke-width="5"/>
<text x="796" y="132" class="tick">Vinyl</text>
<line x1="885" y1="126" x2="913" y2="126" stroke="#6F91A8" stroke-width="5"/>
<text x="921" y="132" class="tick">CD</text>
<line x1="1010" y1="126" x2="1038" y2="126" stroke="#C56D2D" stroke-width="5"/>
<text x="1046" y="132" class="tick">File</text>
<text x="70" y="157" class="panel">House</text>
<line x1="110" y1="410.0" x2="1150" y2="410.0" class="grid"/>
<text x="92" y="415.0" text-anchor="end" class="tick">0%</text>
<line x1="110" y1="351.2" x2="1150" y2="351.2" class="grid"/>
<text x="92" y="356.2" text-anchor="end" class="tick">25%</text>
<line x1="110" y1="292.5" x2="1150" y2="292.5" class="grid"/>
<text x="92" y="297.5" text-anchor="end" class="tick">50%</text>
<line x1="110" y1="233.8" x2="1150" y2="233.8" class="grid"/>
<text x="92" y="238.8" text-anchor="end" class="tick">75%</text>
<line x1="110" y1="175.0" x2="1150" y2="175.0" class="grid"/>
<text x="92" y="180.0" text-anchor="end" class="tick">100%</text>
<line x1="110.0" y1="175" x2="110.0" y2="410" stroke="#f1efe9"/>
<line x1="376.7" y1="175" x2="376.7" y2="410" stroke="#f1efe9"/>
<line x1="643.3" y1="175" x2="643.3" y2="410" stroke="#f1efe9"/>
<line x1="910.0" y1="175" x2="910.0" y2="410" stroke="#f1efe9"/>
<line x1="1150.0" y1="175" x2="1150.0" y2="410" stroke="#f1efe9"/>
<polyline points="110.0,175.0 136.7,177.7 163.3,184.0 190.0,199.8 216.7,212.8 243.3,221.6 270.0,234.4 296.7,241.3 323.3,250.9 350.0,258.7 376.7,265.6 403.3,273.7 430.0,280.5 456.7,283.8 483.3,284.5 510.0,284.8 536.7,279.7 563.3,275.7 590.0,274.0 616.7,273.8 643.3,282.9 670.0,298.6 696.7,320.5 723.3,342.1 750.0,356.9 776.7,366.9 803.3,368.5 830.0,361.9 856.7,356.3 883.3,354.5 910.0,356.9 936.7,353.8 963.3,355.0 990.0,356.2 1016.7,358.4 1043.3,364.3 1070.0,361.4 1096.7,353.1 1123.3,350.2 1150.0,349.4" fill="none" stroke="#7656A8" stroke-width="4" stroke-linejoin="round" stroke-linecap="round"/>
<polyline points="110.0,410.0 136.7,407.3 163.3,401.0 190.0,385.2 216.7,372.1 243.3,363.4 270.0,350.6 296.7,343.7 323.3,334.1 350.0,326.4 376.7,319.5 403.3,311.4 430.0,304.8 456.7,301.4 483.3,301.1 510.0,302.3 536.7,308.2 563.3,312.9 590.0,316.9 616.7,321.6 643.3,318.6 670.0,320.0 696.7,322.0 723.3,331.4 750.0,342.9 776.7,357.1 803.3,367.3 830.0,373.2 856.7,378.8 883.3,379.9 910.0,385.7 936.7,390.8 963.3,395.8 990.0,398.6 1016.7,399.5 1043.3,402.7 1070.0,403.5 1096.7,403.6 1123.3,403.7 1150.0,404.3" fill="none" stroke="#6F91A8" stroke-width="4" stroke-linejoin="round" stroke-linecap="round"/>
<polyline points="110.0,410.0 136.7,410.0 163.3,410.0 190.0,410.0 216.7,410.0 243.3,410.0 270.0,410.0 296.7,410.0 323.3,410.0 350.0,409.9 376.7,409.9 403.3,409.9 430.0,409.7 456.7,409.7 483.3,409.4 510.0,407.8 536.7,407.1 563.3,406.4 590.0,404.0 616.7,399.5 643.3,393.4 670.0,376.2 696.7,352.2 723.3,321.2 750.0,294.8 776.7,270.7 803.3,258.8 830.0,259.3 856.7,259.4 883.3,259.8 910.0,251.7 936.7,249.8 963.3,243.9 990.0,240.0 1016.7,236.9 1043.3,227.7 1070.0,229.9 1096.7,238.0 1123.3,240.9 1150.0,241.1" fill="none" stroke="#C56D2D" stroke-width="4" stroke-linejoin="round" stroke-linecap="round"/>
<text x="70" y="447" class="panel">Techno</text>
<line x1="110" y1="700.0" x2="1150" y2="700.0" class="grid"/>
<text x="92" y="705.0" text-anchor="end" class="tick">0%</text>
<line x1="110" y1="641.2" x2="1150" y2="641.2" class="grid"/>
<text x="92" y="646.2" text-anchor="end" class="tick">25%</text>
<line x1="110" y1="582.5" x2="1150" y2="582.5" class="grid"/>
<text x="92" y="587.5" text-anchor="end" class="tick">50%</text>
<line x1="110" y1="523.8" x2="1150" y2="523.8" class="grid"/>
<text x="92" y="528.8" text-anchor="end" class="tick">75%</text>
<line x1="110" y1="465.0" x2="1150" y2="465.0" class="grid"/>
<text x="92" y="470.0" text-anchor="end" class="tick">100%</text>
<line x1="110.0" y1="465" x2="110.0" y2="700" stroke="#f1efe9"/>
<line x1="376.7" y1="465" x2="376.7" y2="700" stroke="#f1efe9"/>
<line x1="643.3" y1="465" x2="643.3" y2="700" stroke="#f1efe9"/>
<line x1="910.0" y1="465" x2="910.0" y2="700" stroke="#f1efe9"/>
<line x1="1150.0" y1="465" x2="1150.0" y2="700" stroke="#f1efe9"/>
<polyline points="110.0,472.3 136.7,474.4 163.3,483.7 190.0,498.2 216.7,498.5 243.3,502.5 270.0,508.1 296.7,526.1 323.3,539.5 350.0,547.5 376.7,546.1 403.3,546.2 430.0,556.3 456.7,549.9 483.3,548.2 510.0,548.0 536.7,540.5 563.3,545.0 590.0,541.5 616.7,540.4 643.3,551.5 670.0,577.0 696.7,596.0 723.3,621.5 750.0,635.3 776.7,646.7 803.3,650.6 830.0,648.6 856.7,639.6 883.3,637.1 910.0,635.0 936.7,632.9 963.3,642.5 990.0,644.5 1016.7,642.3 1043.3,655.7 1070.0,650.8 1096.7,648.0 1123.3,647.3 1150.0,644.6" fill="none" stroke="#7656A8" stroke-width="4" stroke-linejoin="round" stroke-linecap="round"/>
<polyline points="110.0,692.7 136.7,690.6 163.3,681.3 190.0,666.8 216.7,666.5 243.3,662.5 270.0,656.9 296.7,638.9 323.3,625.7 350.0,617.8 376.7,619.0 403.3,619.0 430.0,608.9 456.7,615.8 483.3,618.6 510.0,621.3 536.7,628.8 563.3,626.2 590.0,634.4 616.7,644.0 643.3,644.7 670.0,650.9 696.7,661.2 723.3,669.6 750.0,674.4 776.7,679.2 803.3,681.9 830.0,682.9 856.7,685.9 883.3,687.4 910.0,689.1 936.7,690.2 963.3,692.4 990.0,693.2 1016.7,694.0 1043.3,695.6 1070.0,695.2 1096.7,694.3 1123.3,694.9 1150.0,695.1" fill="none" stroke="#6F91A8" stroke-width="4" stroke-linejoin="round" stroke-linecap="round"/>
<polyline points="110.0,700.0 136.7,700.0 163.3,700.0 190.0,700.0 216.7,700.0 243.3,700.0 270.0,700.0 296.7,700.0 323.3,699.8 350.0,699.8 376.7,699.9 403.3,699.7 430.0,699.7 456.7,699.2 483.3,698.1 510.0,695.6 536.7,695.6 563.3,693.6 590.0,688.8 616.7,680.5 643.3,668.7 670.0,636.9 696.7,607.8 723.3,573.6 750.0,554.9 776.7,538.6 803.3,532.0 830.0,532.9 856.7,538.8 883.3,539.7 910.0,540.2 936.7,541.4 963.3,529.8 990.0,526.9 1016.7,528.4 1043.3,513.3 1070.0,518.6 1096.7,522.5 1123.3,522.4 1150.0,524.9" fill="none" stroke="#C56D2D" stroke-width="4" stroke-linejoin="round" stroke-linecap="round"/>
<text x="70" y="737" class="panel">Ambient</text>
<line x1="110" y1="990.0" x2="1150" y2="990.0" class="grid"/>
<text x="92" y="995.0" text-anchor="end" class="tick">0%</text>
<line x1="110" y1="931.2" x2="1150" y2="931.2" class="grid"/>
<text x="92" y="936.2" text-anchor="end" class="tick">25%</text>
<line x1="110" y1="872.5" x2="1150" y2="872.5" class="grid"/>
<text x="92" y="877.5" text-anchor="end" class="tick">50%</text>
<line x1="110" y1="813.8" x2="1150" y2="813.8" class="grid"/>
<text x="92" y="818.8" text-anchor="end" class="tick">75%</text>
<line x1="110" y1="755.0" x2="1150" y2="755.0" class="grid"/>
<text x="92" y="760.0" text-anchor="end" class="tick">100%</text>
<line x1="110.0" y1="755" x2="110.0" y2="990" stroke="#f1efe9"/>
<text x="110.0" y="1015" text-anchor="middle" class="tick">1985</text>
<line x1="376.7" y1="755" x2="376.7" y2="990" stroke="#f1efe9"/>
<text x="376.7" y="1015" text-anchor="middle" class="tick">1995</text>
<line x1="643.3" y1="755" x2="643.3" y2="990" stroke="#f1efe9"/>
<text x="643.3" y="1015" text-anchor="middle" class="tick">2005</text>
<line x1="910.0" y1="755" x2="910.0" y2="990" stroke="#f1efe9"/>
<text x="910.0" y="1015" text-anchor="middle" class="tick">2015</text>
<line x1="1150.0" y1="755" x2="1150.0" y2="990" stroke="#f1efe9"/>
<text x="1150.0" y="1015" text-anchor="middle" class="tick">2024</text>
<polyline points="110.0,802.4 136.7,814.6 163.3,837.1 190.0,861.2 216.7,895.5 243.3,895.0 270.0,909.9 296.7,928.4 323.3,924.3 350.0,930.5 376.7,944.3 403.3,944.3 430.0,955.7 456.7,957.5 483.3,959.8 510.0,956.8 536.7,957.7 563.3,961.2 590.0,965.9 616.7,968.6 643.3,973.0 670.0,974.4 696.7,973.9 723.3,976.3 750.0,973.2 776.7,971.8 803.3,970.0 830.0,969.2 856.7,967.6 883.3,965.2 910.0,962.8 936.7,960.1 963.3,956.0 990.0,954.2 1016.7,953.9 1043.3,959.0 1070.0,950.3 1096.7,948.2 1123.3,942.6 1150.0,937.4" fill="none" stroke="#7656A8" stroke-width="4" stroke-linejoin="round" stroke-linecap="round"/>
<polyline points="110.0,942.6 136.7,930.4 163.3,907.9 190.0,883.8 216.7,849.5 243.3,850.0 270.0,835.1 296.7,816.6 323.3,820.9 350.0,814.7 376.7,801.0 403.3,800.8 430.0,789.5 456.7,789.2 483.3,789.9 510.0,798.4 536.7,801.1 563.3,807.4 590.0,813.3 616.7,829.6 643.3,837.6 670.0,857.0 696.7,874.7 723.3,886.7 750.0,904.8 776.7,922.5 803.3,940.6 830.0,947.3 856.7,951.3 883.3,951.6 910.0,956.3 936.7,958.1 963.3,961.1 990.0,963.3 1016.7,966.7 1043.3,971.3 1070.0,967.1 1096.7,965.8 1123.3,965.7 1150.0,962.1" fill="none" stroke="#6F91A8" stroke-width="4" stroke-linejoin="round" stroke-linecap="round"/>
<polyline points="110.0,990.0 136.7,990.0 163.3,990.0 190.0,990.0 216.7,990.0 243.3,990.0 270.0,990.0 296.7,990.0 323.3,989.8 350.0,989.8 376.7,989.5 403.3,989.8 430.0,989.7 456.7,988.4 483.3,985.0 510.0,979.7 536.7,975.6 563.3,966.3 590.0,955.6 616.7,936.5 643.3,924.1 670.0,903.1 696.7,885.7 723.3,871.4 750.0,855.4 776.7,839.3 803.3,822.9 830.0,817.1 856.7,814.7 883.3,816.8 910.0,814.6 936.7,815.7 963.3,816.9 990.0,816.6 1016.7,813.6 1043.3,804.0 1070.0,817.0 1096.7,820.1 1123.3,825.7 1150.0,834.7" fill="none" stroke="#C56D2D" stroke-width="4" stroke-linejoin="round" stroke-linecap="round"/>
<text x="630" y="1055" text-anchor="middle" class="subtitle">Release year</text>
<text x="28" y="585" text-anchor="middle" transform="rotate(-90 28 585)" class="subtitle">Share of filtered releases tagged with each format</text>
<line x1="70" y1="1090" x2="1150" y2="1090" stroke="#ddd9d0" stroke-width="1"/>
<text x="70" y="1125" class="note">Source: Discogs December 2025 release dump. Denominator: distinct releases tagged Vinyl, CD, or File.</text>
<text x="70" y="1148" class="note">Styles and formats can overlap; these are catalog records, not sales or listening data.</text>
</svg>